<?xml version="1.0" encoding="UTF-8"?>
<svg version="1.1" xmlns="http://www.w3.org/2000/svg" width="1254" height="1254">
<path d="M0 0 C413.82 0 827.64 0 1254 0 C1254 413.82 1254 827.64 1254 1254 C840.18 1254 426.36 1254 0 1254 C0 840.18 0 426.36 0 0 Z " fill="#FDFDFD" transform="translate(0,0)"/>
<path d="M0 0 C147.78592375 0 147.78592375 0 185.5 36.125 C207.76282195 59.04537365 219.82040042 91.89416893 220.2734375 123.65234375 C220.29229759 124.86595329 220.29229759 124.86595329 220.3115387 126.1040802 C220.54344733 144.62610809 220.24329828 162.077808 215 180 C214.73767578 180.90073242 214.47535156 181.80146484 214.20507812 182.72949219 C205.49374598 211.61058736 187.95602648 237.08756418 162 253 C161.44151367 253.34901367 160.88302734 253.69802734 160.30761719 254.05761719 C114.85146382 282.03261798 43.21697286 270 0 270 C0 180.9 0 91.8 0 0 Z " fill="#051E1C" transform="translate(776,484)"/>
<path d="M0 0 C16.5 0 33 0 50 0 C50 89.43 50 178.86 50 271 C33.5 271 17 271 0 271 C0 234.37 0 197.74 0 160 C-32.01 160 -64.02 160 -97 160 C-97 196.3 -97 232.6 -97 270 C-113.17 270 -129.34 270 -146 270 C-146 181.23 -146 92.46 -146 1 C-129.83 1 -113.66 1 -97 1 C-97 36.64 -97 72.28 -97 109 C-64.99 109 -32.98 109 0 109 C0 73.03 0 37.06 0 0 Z " fill="#04CC87" transform="translate(692,484)"/>
<path d="M0 0 C21.12 0 42.24 0 64 0 C76 22 76 22 81.75 32.5625 C86.7848656 41.80438813 91.86938504 51.01857488 96.96246338 60.22845459 C102.25810865 69.80651948 107.49834244 79.41290597 112.66381836 89.06201172 C115.93863743 95.15011644 119.39178048 101.10338872 123 107 C125.72410759 103.75053922 127.89448335 100.59474704 129.8125 96.81640625 C130.32409668 95.81826904 130.83569336 94.82013184 131.36279297 93.79174805 C132.17321045 92.19327026 132.17321045 92.19327026 133 90.5625 C137.19832971 82.38385123 141.44685402 74.24420304 145.875 66.1875 C150.42434618 57.90102869 154.91719908 49.58607628 159.375 41.25 C160.31925264 39.48539123 161.26350529 37.72078246 162.20776367 35.95617676 C162.84077445 34.77317167 163.47374963 33.59014754 164.10668945 32.40710449 C167.69164363 25.7064909 171.2800794 19.00777235 174.875 12.3125 C175.47618652 11.1894043 176.07737305 10.06630859 176.69677734 8.90917969 C177.2480127 7.8834082 177.79924805 6.85763672 178.3671875 5.80078125 C178.85300293 4.89497314 179.33881836 3.98916504 179.83935547 3.0559082 C181 1 181 1 182 0 C183.8718094 -0.09386381 185.7471806 -0.11743804 187.62133789 -0.11352539 C189.42309227 -0.11341209 189.42309227 -0.11341209 191.26124573 -0.11329651 C192.5685112 -0.10813522 193.87577667 -0.10297394 195.22265625 -0.09765625 C196.56644132 -0.09579198 197.91022707 -0.09436812 199.25401306 -0.09336853 C202.79682277 -0.08954402 206.3395917 -0.07971432 209.88238525 -0.06866455 C213.49515227 -0.05844899 217.10792584 -0.0538706 220.72070312 -0.04882812 C227.8138188 -0.03809198 234.90690674 -0.02101636 242 0 C237.86824273 8.40815284 233.60571376 16.68574616 228.9375 24.8125 C227.79770146 26.81353124 226.65839568 28.81484322 225.51953125 30.81640625 C224.93896973 31.83492676 224.3584082 32.85344727 223.76025391 33.90283203 C220.8597868 39.00620591 217.99129306 44.12737526 215.125 49.25 C214.54532471 50.28584229 213.96564941 51.32168457 213.3684082 52.38891602 C204.17682502 68.82603113 195.03835009 85.29238573 185.95028687 101.78692627 C180.59906072 111.49869145 175.23032137 121.20015448 169.8125 130.875 C169.31548584 131.76268066 168.81847168 132.65036133 168.30639648 133.56494141 C167.79923096 134.46905762 167.29206543 135.37317383 166.76953125 136.3046875 C166.25286392 137.25204269 165.73619659 138.19939789 165.20387268 139.17546082 C163.5414742 142.14562672 161.7148675 144.97344246 159.8404541 147.81401062 C150.52007835 162.39047426 148.13839655 173.67916291 148.51171875 190.77734375 C148.5135341 193.05375923 148.50957902 195.33018577 148.50019836 197.60658264 C148.49095125 203.51450113 148.5585078 209.41896333 148.64379883 215.32617188 C148.73010517 222.45825825 148.71797704 229.59081751 148.72293854 236.72333527 C148.74115013 247.48439983 148.88194334 258.23749031 149 269 C131.51 269 114.02 269 96 269 C96.09023438 261.92691406 96.18046875 254.85382813 96.2734375 247.56640625 C96.2994286 243.03164679 96.32119804 238.49762234 96.328125 233.96289062 C96.33946369 226.79589216 96.36473628 219.6312183 96.48339844 212.46508789 C97.90936522 176.25909472 97.90936522 176.25909472 82.84918213 144.45346069 C79.46473795 139.96304268 76.8221991 135.01437043 74.0625 130.125 C73.41684082 129.02510742 72.77118164 127.92521484 72.10595703 126.79199219 C67.76422759 119.38413203 63.58397485 111.89354394 59.4375 104.375 C54.33786783 95.13208091 49.10551505 85.98844057 43.70068359 76.92089844 C39.57918692 70.00325904 35.56630665 63.02944612 31.58691406 56.02929688 C27.79376146 49.36585156 23.93738675 42.74119425 20.0625 36.125 C15.19387389 27.80235905 10.3788881 19.45125074 5.625 11.0625 C5.05918213 10.06686035 4.49336426 9.0712207 3.91040039 8.04541016 C3.39598389 7.13452637 2.88156738 6.22364258 2.3515625 5.28515625 C1.89604004 4.47957275 1.44051758 3.67398926 0.97119141 2.84399414 C0 1 0 1 0 0 Z " fill="#03634F" transform="translate(286,485)"/>
<path d="M0 0 C72.89107143 0 72.89107143 0 93.546875 19.32421875 C112.90045155 40.43440973 115.19550452 68.19482229 114.19335938 95.57226562 C113.62560379 105.63702372 112.13057902 114.75132564 108 124 C107.66871094 125.00804687 107.33742188 126.01609375 106.99609375 127.0546875 C101.85729241 142.24941775 91.23088494 154.65882625 77 162 C51.67825132 173.88247679 29.89082837 170 0 170 C0 113.9 0 57.8 0 0 Z " fill="#FCFCFC" transform="translate(828,535)"/>
<path d="M0 0 C0.78486786 -0.00004028 1.56973572 -0.00008057 2.37838745 -0.00012207 C4.03082323 0.00522156 5.68325934 0.02275506 7.33544922 0.05175781 C9.86634713 0.09373606 12.39459275 0.09281439 14.92578125 0.0859375 C16.53387267 0.09642658 18.14195039 0.10936317 19.75 0.125 C20.88443039 0.12530212 20.88443039 0.12530212 22.04177856 0.12561035 C27.23995291 0.24303619 27.23995291 0.24303619 29.7175293 1.97314453 C31.22277616 4.35385186 31.15362422 5.82590297 30.7421875 8.59375 C29.44921875 10.8203125 29.44921875 10.8203125 27.5546875 13.21875 C23.79034946 18.16315197 20.22999046 23.20041175 16.7421875 28.34375 C11.7284188 35.7116166 6.65657176 43.03665129 1.5546875 50.34375 C-3.26265361 57.24724283 -8.03373132 64.17190801 -12.65063477 71.21118164 C-14.87136514 74.57846163 -17.16550648 77.87712956 -19.53125 81.14453125 C-20.08780273 81.91619629 -20.64435547 82.68786133 -21.21777344 83.48291016 C-22.30387947 84.98211869 -23.39794314 86.47560383 -24.50097656 87.96240234 C-24.99049805 88.63867676 -25.48001953 89.31495117 -25.984375 90.01171875 C-26.42346191 90.60750732 -26.86254883 91.2032959 -27.31494141 91.81713867 C-28.5703361 93.84740698 -28.5703361 93.84740698 -28.2578125 97.59375 C-27.24245986 99.59215922 -27.24245986 99.59215922 -25.7578125 101.55078125 C-25.20891357 102.32123779 -24.66001465 103.09169434 -24.09448242 103.88549805 C-23.18533081 105.13327026 -23.18533081 105.13327026 -22.2578125 106.40625 C-20.96168651 108.22095927 -19.66613532 110.03607919 -18.37109375 111.8515625 C-17.69256348 112.79676758 -17.0140332 113.74197266 -16.31494141 114.71582031 C-12.98404 119.37576166 -9.7139007 124.07748393 -6.4453125 128.78125 C-5.4538623 130.20522095 -5.4538623 130.20522095 -4.44238281 131.65795898 C1.31329126 139.93951934 6.98604807 148.27641218 12.62988281 156.63452148 C15.85177852 161.39482353 19.09805371 166.12544379 22.48046875 170.7734375 C23.04604492 171.55348145 23.61162109 172.33352539 24.19433594 173.13720703 C25.23267317 174.55996202 26.28082858 175.97562826 27.34082031 177.38232422 C29.25832199 180.01054169 30.65172888 182.14588493 31.30078125 185.359375 C30.7421875 187.59375 30.7421875 187.59375 29.19921875 189.20410156 C25.81382719 191.11881229 22.66110274 191.06145322 18.87109375 191.0625 C18.11175034 191.07011353 17.35240692 191.07772705 16.5700531 191.08557129 C14.96722698 191.09635565 13.36433068 191.09923213 11.76147461 191.09472656 C9.31569653 191.09375438 6.87305948 191.13538367 4.42773438 191.1796875 C2.86719402 191.18489514 1.3066428 191.18758268 -0.25390625 191.1875 C-0.98113388 191.20389526 -1.70836151 191.22029053 -2.45762634 191.23718262 C-6.33125854 191.18474766 -8.05452074 190.75967814 -11.08984375 188.28222656 C-14.61587405 183.90963133 -14.61587405 183.90963133 -15.94921875 181.984375 C-16.41231445 181.32163574 -16.87541016 180.65889648 -17.35253906 179.97607422 C-18.07908691 178.92057373 -18.07908691 178.92057373 -18.8203125 177.84375 C-19.88916769 176.30978766 -20.95818236 174.77593644 -22.02734375 173.2421875 C-22.56697754 172.46456055 -23.10661133 171.68693359 -23.66259766 170.88574219 C-25.6164051 168.07852697 -27.59197641 165.28719966 -29.57006836 162.49707031 C-35.53908904 154.07617987 -41.43181875 145.60281856 -47.31958008 137.125 C-50.92665104 131.93434747 -54.54443317 126.75194778 -58.19433594 121.59130859 C-59.18013788 120.19726792 -60.16392768 118.80180173 -61.14550781 117.40478516 C-63.39228858 114.20948505 -65.66149879 111.0380852 -67.99609375 107.90625 C-68.42156494 107.32375488 -68.84703613 106.74125977 -69.28540039 106.14111328 C-70.41635667 104.59386931 -71.56298398 103.05811295 -72.7109375 101.5234375 C-74.66943714 97.81415788 -74.87309116 95.7411839 -74.2578125 91.59375 C-72.78013493 89.09443162 -71.38028554 87.06932826 -69.5703125 84.84375 C-68.55282009 83.5284875 -67.53864556 82.21065336 -66.52734375 80.890625 C-65.99189941 80.19646484 -65.45645508 79.50230469 -64.90478516 78.78710938 C-62.04982457 74.98500948 -59.41454888 71.03563304 -56.7578125 67.09375 C-52.45764143 60.75270209 -48.0541379 54.51589055 -43.48999023 48.36279297 C-39.67889308 43.20865941 -35.98879585 37.97514401 -32.3203125 32.71875 C-31.73266113 31.87763672 -31.14500977 31.03652344 -30.53955078 30.16992188 C-28.20401188 26.82443759 -25.87055921 23.47756635 -23.54589844 20.12451172 C-21.93322455 17.79881164 -20.3146599 15.47730613 -18.6953125 13.15625 C-18.21908447 12.4648291 -17.74285645 11.7734082 -17.25219727 11.06103516 C-16.79901123 10.41312012 -16.3458252 9.76520508 -15.87890625 9.09765625 C-15.29774048 8.25956421 -15.29774048 8.25956421 -14.70483398 7.40454102 C-10.1534267 1.70894665 -7.34883926 -0.16017016 0 0 Z " fill="#05634F" transform="translate(230.2578125,530.40625)"/>
<path d="M0 0 C1.10936165 0.00136711 1.10936165 0.00136711 2.24113464 0.00276184 C3.00330795 -0.00152328 3.76548126 -0.00580841 4.55075073 -0.01022339 C6.16555284 -0.01597148 7.78038085 -0.01646342 9.39518738 -0.01213074 C11.85796312 -0.00898234 14.31952417 -0.03238188 16.78215027 -0.05778503 C18.35181021 -0.06005925 19.92147338 -0.06076096 21.49113464 -0.05973816 C22.22463638 -0.06894791 22.95813812 -0.07815765 23.71386719 -0.08764648 C28.19078802 -0.04745904 31.02229764 0.52974539 34.56535339 3.30354309 C36.07585144 4.98249817 36.07585144 4.98249817 37.32707214 6.82307434 C37.80064148 7.50796936 38.27421082 8.19286438 38.76213074 8.89851379 C39.25406921 9.63029846 39.74600769 10.36208313 40.25285339 11.11604309 C41.32142085 12.66843142 42.39043716 14.22051088 43.45988464 15.77229309 C43.98662781 16.54315247 44.51337097 17.31401184 45.05607605 18.10823059 C47.14170088 21.1418667 49.28768352 24.12982228 51.44035339 27.11604309 C56.14565984 33.67807443 60.76805388 40.29746002 65.39079285 46.9178009 C68.77248019 51.75653341 72.17935305 56.57475755 75.62785339 61.36604309 C80.25910074 67.80453542 84.73102873 74.34968569 89.18864441 80.90925598 C89.71385681 81.68132385 90.23906921 82.45339172 90.78019714 83.24885559 C91.24546814 83.93479797 91.71073914 84.62074036 92.19010925 85.32746887 C93.14784608 86.70363111 94.16028117 88.04263697 95.21159363 89.34870911 C97.33690058 92.41766001 97.00753398 94.66137138 96.56535339 98.30354309 C95.2829544 100.77083147 94.05913879 102.77284459 92.44035339 104.99104309 C91.99804382 105.62477844 91.55573425 106.25851379 91.10002136 106.91145325 C90.12609099 108.303116 89.14477613 109.68963238 88.15715027 111.0716095 C86.48848542 113.41132331 84.84506009 115.76724012 83.20597839 118.12776184 C79.67914823 123.20054558 76.12543574 128.25405906 72.56535339 133.30354309 C72.03619324 134.05458313 71.50703308 134.80562317 70.96183777 135.579422 C67.01554366 141.17919829 63.06135852 146.77338323 59.10636902 152.36701965 C57.63399654 154.44976817 56.16214692 156.53288543 54.69035339 158.61604309 C54.20687439 159.29964905 53.72339539 159.983255 53.2252655 160.68757629 C50.40154688 164.6849564 47.5953995 168.69392705 44.80363464 172.71369934 C44.17118835 173.6227301 43.53874207 174.53176086 42.88713074 175.46833801 C41.6543824 177.24143198 40.4241354 179.01626829 39.19670105 180.79304504 C38.35631287 182.00093689 38.35631287 182.00093689 37.49894714 183.23323059 C37.00451111 183.94721008 36.51007507 184.66118958 36.00065613 185.39680481 C35.52700623 186.02602844 35.05335632 186.65525208 34.56535339 187.30354309 C33.98938416 188.15964172 33.98938416 188.15964172 33.40177917 189.03303528 C30.33404495 191.15540817 26.84993246 190.72974654 23.24894714 190.70198059 C22.03054893 190.70628586 22.03054893 190.70628586 20.78753662 190.7106781 C19.07194826 190.7127183 17.35633662 190.70719149 15.64079285 190.69465637 C13.00900048 190.67858064 10.378739 190.69451645 7.74699402 190.71369934 C6.08097499 190.71171731 4.41495692 190.70787446 2.74894714 190.70198059 C1.95935104 190.70805328 1.16975494 190.71412598 0.35623169 190.72038269 C-1.85871887 190.69172668 -1.85871887 190.69172668 -5.43464661 190.30354309 C-7.43464661 187.30354309 -7.43464661 187.30354309 -7.39558411 184.11213684 C-6.18472771 179.31301087 -4.0093691 176.27137365 -1.05964661 172.36604309 C0.04812688 170.84984807 1.15487657 169.33290456 2.26066589 167.81526184 C2.81915222 167.05648743 3.37763855 166.29771301 3.95304871 165.51594543 C6.30910489 162.28296828 8.56470686 158.98535417 10.81535339 155.67854309 C15.32260121 149.09192063 19.87682032 142.53876794 24.44035339 135.99104309 C29.5503675 128.65501619 34.64143049 121.30677142 39.69035339 113.92854309 C40.19808289 113.18692932 40.70581238 112.44531555 41.22892761 111.68122864 C42.19238008 110.27063048 43.15011814 108.8561086 44.10148621 107.43733215 C45.14538824 105.91570043 46.2274186 104.41993646 47.33390808 102.94319153 C47.90270691 102.16234192 48.47150574 101.38149231 49.05754089 100.57698059 C49.58460632 99.87750305 50.11167175 99.17802551 50.65470886 98.45735168 C51.82614208 96.29509039 51.82614208 96.29509039 50.93547058 93.8709259 C49.46793378 91.12099414 47.88606495 88.54243574 46.15129089 85.95198059 C45.47195496 84.93491028 44.79261902 83.91783997 44.09269714 82.86994934 C43.02728699 81.29020325 43.02728699 81.29020325 41.94035339 79.67854309 C41.25328308 78.64858215 40.56621277 77.61862122 39.85832214 76.55744934 C35.84774185 70.57543934 31.71793097 64.70174248 27.45890808 58.8943634 C24.58639269 54.96409867 21.79103711 50.9813875 19.00285339 46.99104309 C18.41713562 46.15363586 17.83141785 45.31622864 17.22795105 44.45344543 C10.76874683 35.19599299 4.39357492 25.87993607 -1.92536926 16.52619934 C-2.85171151 15.16200979 -3.78692091 13.80372833 -4.7368927 12.45588684 C-7.23139587 8.88127814 -8.03557325 6.71033847 -7.43464661 2.30354309 C-4.93602269 -0.19508083 -3.41169373 0.04751397 0 0 Z " fill="#04CB86" transform="translate(1032.4346466064453,530.6964569091797)"/>
<path d="M0 0 C1.19882812 0.00483398 1.19882812 0.00483398 2.421875 0.00976562 C3.659375 0.02233398 3.659375 0.02233398 4.921875 0.03515625 C5.76234375 0.03966797 6.6028125 0.04417969 7.46875 0.04882812 C9.53648901 0.06057664 11.60419124 0.07851103 13.671875 0.09765625 C11.13457 2.72769615 9.11292973 3.32368166 5.58428955 3.4584198 C3.88855871 3.46710867 2.19269428 3.45915918 0.49707031 3.43823242 C-0.430103 3.4386705 -1.35727631 3.43910858 -2.31254578 3.43955994 C-5.37524519 3.43747097 -8.43739629 3.41413453 -11.5 3.390625 C-13.6242035 3.38502944 -15.74841087 3.38075915 -17.87261963 3.37776184 C-23.46224668 3.36630998 -29.0516397 3.33683966 -34.64117432 3.3036499 C-40.34538609 3.2729565 -46.04963569 3.25925805 -51.75390625 3.24414062 C-62.9454153 3.21197045 -74.13675068 3.16076981 -85.328125 3.09765625 C-85.328125 2.76765625 -85.328125 2.43765625 -85.328125 2.09765625 C-84.37234558 2.08734879 -83.41656616 2.07704132 -82.43182373 2.06642151 C-73.42672645 1.96868663 -64.42169826 1.86595241 -55.41671371 1.75831699 C-50.7871105 1.70314082 -46.15750091 1.64972929 -41.52783203 1.6003418 C-37.06038192 1.55262001 -32.59300778 1.50027437 -28.1256485 1.4447155 C-26.42082866 1.42432736 -24.71598802 1.40560847 -23.01113129 1.38858223 C-20.62420635 1.36445978 -18.23742418 1.33441605 -15.85058594 1.30297852 C-15.14496017 1.29722305 -14.43933441 1.29146759 -13.71232605 1.28553772 C-9.01260327 1.21512826 -4.66358725 -0.03331134 0 0 Z " fill="#102826" transform="translate(873.328125,484.90234375)"/>
<path d="M0 0 C0.99 0 1.98 0 3 0 C3.4125 1.010625 3.825 2.02125 4.25 3.0625 C5.39857637 5.76632572 6.69437294 8.28321715 8.1875 10.8125 C10 14 10 14 10 16 C10.66 16 11.32 16 12 16 C12.23074219 16.58007812 12.46148437 17.16015625 12.69921875 17.7578125 C14.86883908 22.9546106 17.17985906 26.86151398 21 31 C20.67 31.66 20.34 32.32 20 33 C21.485 33.495 21.485 33.495 23 34 C23 35.65 23 37.3 23 39 C24.485 39.495 24.485 39.495 26 40 C26.84375 41.671875 26.84375 41.671875 27.5 43.75 C28.40464529 46.43506422 29.25614736 48.42081352 30.75 50.875 C31.1625 51.57625 31.575 52.2775 32 53 C31.67 53.66 31.34 54.32 31 55 C26.76715345 48.05241642 22.67976712 41.02320884 18.61669922 33.97558594 C15.82548825 29.13823953 13.01222949 24.31489073 10.17578125 19.50390625 C9.53447266 18.41352051 8.89316406 17.32313477 8.23242188 16.19970703 C6.9650623 14.04629164 5.69429525 11.89487759 4.41992188 9.74560547 C3.84435547 8.7660791 3.26878906 7.78655273 2.67578125 6.77734375 C2.15927002 5.90327881 1.64275879 5.02921387 1.1105957 4.12866211 C0 2 0 2 0 0 Z " fill="#185C49" transform="translate(295,500)"/>
<path d="M0 0 C19.8 0 39.6 0 60 0 C59.34 0.99 58.68 1.98 58 3 C58 2.34 58 1.68 58 1 C50.75022565 1.10753442 43.50054963 1.22017452 36.25095654 1.33933926 C32.88470387 1.39451122 29.51844243 1.44792197 26.15209961 1.49731445 C22.28230386 1.55496637 18.41264856 1.61867568 14.54296875 1.68359375 C13.33352097 1.70030624 12.12407318 1.71701874 10.87797546 1.73423767 C9.19657219 1.7641555 9.19657219 1.7641555 7.48120117 1.79467773 C6.49302902 1.81022202 5.50485687 1.8257663 4.48674011 1.84178162 C1.86800044 1.90213783 1.86800044 1.90213783 -1 3 C-0.67 2.01 -0.34 1.02 0 0 Z " fill="#175743" transform="translate(468,485)"/>
<path d="M0 0 C0.99 0 1.98 0 3 0 C3 0.66 3 1.32 3 2 C17.19 2.33 31.38 2.66 46 3 C46 3.33 46 3.66 46 4 C30.49 4 14.98 4 -1 4 C-0.67 2.68 -0.34 1.36 0 0 Z " fill="#10C884" transform="translate(694,750)"/>
<path d="M0 0 C1.32 0.33 2.64 0.66 4 1 C5.58567839 1.1421701 7.17518632 1.24504041 8.765625 1.31640625 C9.65507812 1.35830078 10.54453125 1.40019531 11.4609375 1.44335938 C12.38132812 1.48267578 13.30171875 1.52199219 14.25 1.5625 C15.18585938 1.60568359 16.12171875 1.64886719 17.0859375 1.69335938 C19.39048641 1.7991805 21.69513839 1.90126557 24 2 C24 2.33 24 2.66 24 3 C14.595 3.495 14.595 3.495 5 4 C5.66 4.66 6.32 5.32 7 6 C7.625 8.625 7.625 8.625 8 11 C7.01 11.495 7.01 11.495 6 12 C4.02 8.04 2.04 4.08 0 0 Z " fill="#166552" transform="translate(286,485)"/>
<path d="M0 0 C0.33 0.99 0.66 1.98 1 3 C4.6139577 4.5206422 8.73947579 4.22416919 12.609375 4.31640625 C13.33618469 4.33718735 14.06299438 4.35796844 14.81182861 4.37937927 C17.12445991 4.44455512 19.43720093 4.5036104 21.75 4.5625 C23.32162575 4.60571566 24.89324056 4.64933092 26.46484375 4.69335938 C30.30978453 4.80020356 34.15483524 4.90156024 38 5 C38 5.33 38 5.66 38 6 C32.90968245 6.04936158 27.81950357 6.08570105 22.72900391 6.10986328 C20.99655735 6.11993376 19.26412784 6.13359089 17.53173828 6.15087891 C15.04455361 6.17508162 12.55759325 6.18647239 10.0703125 6.1953125 C9.29317902 6.20563507 8.51604553 6.21595764 7.71536255 6.22659302 C5.80874507 6.22699271 3.90268964 6.1223214 2 6 C1.34 5.34 0.68 4.68 0 4 C0 2.68 0 1.36 0 0 Z " fill="#01C779" transform="translate(1025,714)"/>
<path d="M0 0 C0.99 0.66 1.98 1.32 3 2 C3.6504944 7.52920237 2.58202103 11.21847958 0 16 C-0.99 16.33 -1.98 16.66 -3 17 C-2.86722656 16.27554688 -2.73445312 15.55109375 -2.59765625 14.8046875 C-1.69718291 9.87508895 -0.80218034 4.94677877 0 0 Z " fill="#283836" transform="translate(940,639)"/>
<path d="M0 0 C0.66 0 1.32 0 2 0 C0.76995508 4.06861014 -0.76122773 7.39849678 -3 11 C-3.33 11.99 -3.66 12.98 -4 14 C-4.66 14 -5.32 14 -6 14 C-6.28875 14.804375 -6.5775 15.60875 -6.875 16.4375 C-8 19 -8 19 -10 20 C-8.56347895 15.08558588 -6.45840385 10.99761642 -3.875 6.625 C-3.50246094 5.98433594 -3.12992187 5.34367188 -2.74609375 4.68359375 C-1.83565998 3.11951523 -0.91851809 1.55934466 0 0 Z " fill="#DAE7E3" transform="translate(498,538)"/>
<path d="M0 0 C0.99 0.33 1.98 0.66 3 1 C2.01 1.33 1.02 1.66 0 2 C-0.226875 2.721875 -0.45375 3.44375 -0.6875 4.1875 C-2.66428255 8.4234626 -6.1991871 10.42782197 -10 13 C-10.66 12.67 -11.32 12.34 -12 12 C-8.04 8.04 -4.08 4.08 0 0 Z " fill="#E4E7E7" transform="translate(965,713)"/>
<path d="M0 0 C0.99 0.33 1.98 0.66 3 1 C3 2.65 3 4.3 3 6 C3.99 6.33 4.98 6.66 6 7 C6.84375 8.671875 6.84375 8.671875 7.5 10.75 C8.40464529 13.43506422 9.25614736 15.42081352 10.75 17.875 C11.1625 18.57625 11.575 19.2775 12 20 C11.67 20.66 11.34 21.32 11 22 C9.52736951 19.56034215 8.05922182 17.11818333 6.59765625 14.671875 C5.65448419 13.0945408 4.70611443 11.52026156 3.74609375 9.953125 C1.77073872 6.65843691 0.46439027 3.83121976 0 0 Z " fill="#105644" transform="translate(315,533)"/>
<path d="M0 0 C0.99 0 1.98 0 3 0 C3.185625 1.5778125 3.185625 1.5778125 3.375 3.1875 C3.82992066 6.8852232 3.82992066 6.8852232 5.125 9.6875 C6.11953726 12.3159199 6.09752456 13.43910935 5 16 C4.34 16.33 3.68 16.66 3 17 C2.01 11.39 1.02 5.78 0 0 Z " fill="#1D2928" transform="translate(937,582)"/>
<path d="M0 0 C0.99 0.33 1.98 0.66 3 1 C3.84375 2.77734375 3.84375 2.77734375 4.5 4.9375 C5.56175093 8.41979025 5.76336466 8.8422431 9 11 C8.34 12.32 7.68 13.64 7 15 C5.82539808 13.06730041 4.66055528 11.12866687 3.5 9.1875 C2.8503125 8.10855469 2.200625 7.02960937 1.53125 5.91796875 C0 3 0 3 0 0 Z " fill="#0F5A47" transform="translate(346,588)"/>
<path d="M0 0 C1.86328125 0.234375 1.86328125 0.234375 4 1 C5.23046875 2.890625 5.23046875 2.890625 6.1875 5.25 C6.51621094 6.05824219 6.84492188 6.86648438 7.18359375 7.69921875 C8.04097073 10.11546295 8.67153877 12.45442544 9 15 C4.95808535 10.50898372 2.56325559 5.41015011 0 0 Z " fill="#125B49" transform="translate(329,560)"/>
<path d="M0 0 C0.66 0.66 1.32 1.32 2 2 C0.87970983 3.48273699 -0.24638618 4.96108886 -1.375 6.4375 C-2.31472656 7.67306641 -2.31472656 7.67306641 -3.2734375 8.93359375 C-5 11 -5 11 -7 12 C-5.61735163 9.13132769 -4.07851447 6.43975968 -2.375 3.75 C-1.92898438 3.04359375 -1.48296875 2.3371875 -1.0234375 1.609375 C-0.68570312 1.07828125 -0.34796875 0.5471875 0 0 Z " fill="#DAF7ED" transform="translate(1094,678)"/>
<path d="M0 0 C4.12751449 0.60698743 7.3321148 2.03810791 11 4 C11 4.33 11 4.66 11 5 C7.28400809 5.20086443 6.22791555 5.1519437 3 3 C2.01 2.67 1.02 2.34 0 2 C0 1.34 0 0.68 0 0 Z " fill="#EAECED" transform="translate(899,541)"/>
<path d="M0 0 C0.99 0 1.98 0 3 0 C3.474375 1.11375 3.94875 2.2275 4.4375 3.375 C5.25306463 5.26710994 6.07856355 7.15712709 7 9 C6.34 9.66 5.68 10.32 5 11 C4.16151196 9.54462432 3.32936066 8.08559627 2.5 6.625 C1.80390625 5.40683594 1.80390625 5.40683594 1.09375 4.1640625 C0 2 0 2 0 0 Z " fill="#246654" transform="translate(295,500)"/>
<path d="M0 0 C4.66154042 1.49835228 5.86610751 4.88463591 8 9 C7.01 8.67 6.02 8.34 5 8 C5 7.34 5 6.68 5 6 C4.34 6 3.68 6 3 6 C0 2.53846154 0 2.53846154 0 0 Z " fill="#16CF84" transform="translate(1114,604)"/>
<path d="M0 0 C0.66 0 1.32 0 2 0 C0.52307692 6.64615385 0.52307692 6.64615385 -2.125 8.4375 C-2.74375 8.623125 -3.3625 8.80875 -4 9 C-2.80100302 5.9168649 -1.52299523 2.93720508 0 0 Z " fill="#E2EDE9" transform="translate(468,592)"/>
<path d="M0 0 C0.99 0 1.98 0 3 0 C1.90931332 3.77545388 1.0916909 6.47043472 -2 9 C-1.125 1.125 -1.125 1.125 0 0 Z " fill="#0A503D" transform="translate(479,566)"/>
<path d="M0 0 C0.33 0.66 0.66 1.32 1 2 C-0.25 4.625 -0.25 4.625 -2 7 C-2.99 7 -3.98 7 -5 7 C-3.35 4.69 -1.7 2.38 0 0 Z " fill="#14C483" transform="translate(1050,677)"/>
<path d="M0 0 C0.66 0.99 1.32 1.98 2 3 C0.625 5 0.625 5 -1 7 C-1.66 7 -2.32 7 -3 7 C-1.125 1.125 -1.125 1.125 0 0 Z " fill="#DFEAE6" transform="translate(515,508)"/>
<path d="M0 0 C0.99 0.33 1.98 0.66 3 1 C2.01 2.98 1.02 4.96 0 7 C-0.66 5.68 -1.32 4.36 -2 3 C-1.34 2.01 -0.68 1.02 0 0 Z " fill="#1D6C56" transform="translate(516,501)"/>
</svg>
